<?xml version="1.0" encoding="utf-8"?>
<!-- Generator: Adobe Illustrator 21.0.0, SVG Export Plug-In . SVG Version: 6.00 Build 0)  -->
<svg version="1.1" id="Layer_1" xmlns="http://www.w3.org/2000/svg" xmlns:xlink="http://www.w3.org/1999/xlink" x="0px" y="0px"
	 viewBox="0 0 200 200" style="enable-background:new 0 0 200 200;" xml:space="preserve">
<style type="text/css">
	.st0{fill:none;stroke:#000000;stroke-width:0.75;stroke-miterlimit:10;}
	.st1{fill:none;stroke:#000000;stroke-miterlimit:10;}
	.st2{fill:none;stroke:#000000;stroke-width:3;stroke-miterlimit:10;}
	.st3{fill:none;stroke:#000000;stroke-width:0.5;stroke-miterlimit:10;}
	.st4{fill:none;stroke:#000000;stroke-width:2;stroke-miterlimit:10;}
	.st5{stroke:#000000;stroke-width:0.75;stroke-miterlimit:10;}
	.st6{fill:none;stroke:#000000;stroke-width:5;stroke-miterlimit:10;}
	.st7{stroke:#000000;stroke-miterlimit:10;}
	.st8{fill:none;stroke:#000000;stroke-width:4;stroke-miterlimit:10;}
</style>
<g>
	<g>
		<path class="st0" d="M146.2,115.7c-16.4,9.2-39.3,9.8-56.4,1.4c3,5.7,5.2,12.1,10.5,16.5c4.6,3.9,12.5,6.7,20.5,5.9
			c8.8-1,14.1-6.1,18.9-10.6c3.1-3,5.1-5.8,6.4-7.9"/>
		<path class="st1" d="M146.4,117.1c1.3,1.8,1.8,4,1.4,6c-0.1,0.8-0.4,1.6-0.1,2.3c0.4,0.9,1.4,1.4,2.5,1.7c2.1,0.7,4.4,0.8,6.5,0.4
			c1.3-0.3,2.7-0.9,2.7-2c0-1.1-1.3-1.8-2.2-2.5c-2-1.5-2.9-3.9-2.4-6c-1.7,0-3.5-0.7-4.5-1.9"/>
		<path class="st1" d="M148,120.9c2.2,0.2,4.5,0.1,6.7-0.2"/>
		<path class="st2" d="M151.4,115.6c1.7-1.6,3.8-2.8,6.2-3.7c1-0.3,2.1-0.7,2.8-1.4c0.6-0.7,0.6-1.7,0.3-2.5
			c-0.4-0.8-1.1-1.5-1.7-2.2c-2.5-2.6-5-5.2-7.5-7.8"/>
		<path class="st3" d="M145.8,115.6c4.1-4.2,5.2-10.3,2.7-15.3"/>
		<path class="st0" d="M153.9,91.6c2.6-1.8,6.7-1.6,9.6-0.1c2.9,1.5,4.6,4.1,5.6,6.8c0.9,2.6,1.1,5.3-0.1,7.8
			c-1.2,2.5-3.9,4.5-7.1,4.8"/>
		<path class="st0" d="M156.4,90.1c5.5-1.9,10-5.5,12.6-9.9s3.1-9.6,1.4-14.2c-3.7-2.9-9.1-4.2-14.2-3.4c-5,0.8-9.5,3.6-11.6,7.4"/>
		<path class="st4" d="M146.6,87.2c0.6,3.6,0.4,7.3-0.5,10.9c-0.4,1.4-0.9,2.9-2,4c-2.2,2.1-6,2.4-9.5,2.4c-2.5,0.1-5,0.1-7.5-0.3
			s-4.8-1.6-6.1-3.3c-7.7-0.2-15.4-0.3-23.1-0.5c-0.9,0-1.8,0-2.5-0.4c-0.8-0.4-1.2-1.2-0.8-1.8"/>
		<path class="st0" d="M120.8,106c-0.7,1.3-1.4,2.8-0.9,4.2c0.5,1.4,2.9,2.3,4.1,1.2c0.4-0.3,0.6-0.8,1.2-0.9
			c0.7-0.1,1.3,0.5,1.5,1.1c0.7,1.6,0.9,3.3,0.6,5c3.1-2.3,4.8-5.8,4.6-9.2"/>
		<path class="st0" d="M103,51.9c10-4.9,18.5-7.1,24.3-8.2c4.4-0.8,7.3-1,10.3-0.1c6.7,2.2,9,8.7,9.5,10.4
			c2.1,6.3-0.4,11.7-1.4,13.6"/>
		<path class="st0" d="M131.9,54.1c1.6-1.1,3.2-2.3,5.2-2.8c2-0.5,4.5-0.2,5.7,1.2"/>
		<path class="st0" d="M107.8,54.5c3.7-0.7,7.8-0.4,11.2,1"/>
		<path class="st0" d="M120.9,73.3c4.8,0.6,10,0.2,14-1.9s6.7-6.3,5.6-10.2"/>
		<path class="st0" d="M123,78.4c3-0.8,6.2-1.2,9.3-1.2"/>
		<path class="st0" d="M126.4,80.4c0.8-0.1,1.7-0.1,2.5-0.2"/>
		<path class="st0" d="M120.8,64.5c-1.4-1.4-1.3-3.7,0.2-5"/>
		<path class="st0" d="M102.6,177.9c1.1,0.5,2,1.4,2.7,2.3c1.2,1.5,2.1,3.4,1.4,5.1c-0.6,1.8-2.7,3-4.9,3.4c-3.4,0.6-7-0.6-9.3-2.7
			c-2.3-2.1-3.2-5.1-2.9-7.9c0.1-0.7,0.3-1.5,1-1.9c0.5-0.3,1.1-0.3,1.7-0.3c2,0,3.8,0.4,5.7,0.9
			C99.6,177.3,101.2,177.3,102.6,177.9z"/>
		<path class="st0" d="M95.2,179.8c0.7,0,1.4,0,2.2,0c0.5-0.6,0.9-1.2,1.4-1.8"/>
		<path class="st0" d="M97.5,182.2c1.2,0.2,2.5-0.5,2.8-1.5"/>
		<path class="st0" d="M100.2,184.4c0.6-0.5,1.3-1.1,1.9-1.6"/>
		<path class="st0" d="M159.5,188.9c0.6,1.3,1,2.8,0.1,4c-0.9,1.2-2.9,1.6-4.6,1.7c-7.2,0.5-14.6-1-20.6-4.3
			c-1.6-0.9-3.1-1.9-4.1-3.2c-1-1.3-1.4-3-0.7-4.5c1.9-3.9,11.7-4.3,16-3.4C151.8,180.4,157.2,184.1,159.5,188.9z"/>
		<path class="st0" d="M141.2,185.2c0.3-1.1,0.6-2.3,0.8-3.4"/>
		<path class="st0" d="M143.6,186.1c1.5-0.5,2.2-2,1.6-3.2"/>
		<path class="st0" d="M146.3,187.9c0.6-0.5,1.3-0.9,1.9-1.4c0.1-0.8,0.2-1.6,0.3-2.5"/>
		<path class="st0" d="M103.8,61.3c0.8,1.1,2.3,1.8,3.9,1.9c1.6,0.1,3.2-0.5,4.4-1.3c1.2-0.8,2.1-2,2.8-3.1c0.1-0.2,0.2-0.5,0.2-0.7
			c-0.1-0.3-0.5-0.5-0.9-0.6c-0.4-0.1-0.8,0-1.2,0c-2.5,0.3-5,0.4-7.5,0.2c-0.4,0-1.5-0.3-1.9-0.2c-0.4,0.1-0.3,0.8-0.4,1.1
			C103.2,59.5,103.3,60.5,103.8,61.3z"/>
		<ellipse class="st5" cx="107.3" cy="61.7" rx="3" ry="1.5"/>
		<path class="st0" d="M140.6,61.4c0.7,0.2,2.3,0.5,3.3-0.2c1-0.7,0.7-2,1.6-3.1c0.1-0.1,0.3-0.4,0.5-0.8c0.1-0.3,0.1-0.6,0.1-0.8
			c-0.3-1.1-7.1-2-9.3,0.4c-0.4,0.5-0.5,0.8-0.5,0.9C136.1,59.4,139.1,60.9,140.6,61.4z"/>
		<path class="st5" d="M143.1,59.4c0.4,0.5,0.7,1.4,0.3,1.8c-1,0.9-5.9-0.8-5.8-1.9c0.1-0.6,1.8-1.2,3.2-1
			C141,58.3,142.4,58.4,143.1,59.4z"/>
		<path class="st0" d="M154.7,69.7c-0.4,3.3-0.5,6.7-0.2,10.1"/>
		<path class="st4" d="M146.8,87.8c-0.3-0.7-0.1-1.4,0.3-2c0.5-0.8,1.1-1.2,1.7-1.6c0.8-0.5,1.6-0.8,2.1-0.9"/>
		<path class="st4" d="M142.3,75.4c2.6-0.2,5.2,0.7,6.7,2.4c2.3,2.6,1,5.5,0.9,5.7"/>
		<path class="st0" d="M103,51.9c-1,1-7.9,8.1-5.4,17.1c2.5,9.1,12.6,12.9,16.3,14.4c4,1.6,8.5,2.7,12.9,2.1
			c6.5-0.8,10.3-4.7,12.4-6.8c4.4-4.3,5.8-8.9,6.3-11.4"/>
		<path class="st6" d="M108.9,50.3c0,0-5.2-3.4-8-13s0.2-18,0.2-18"/>
		<ellipse class="st7" cx="101.1" cy="14.2" rx="4" ry="5.9"/>
		<path class="st8" d="M131.3,42.2c3.3-9.1,3.7-18.9,1.3-28.1"/>
		<ellipse class="st7" cx="133" cy="11.2" rx="3.6" ry="6.2"/>
		<path class="st3" d="M155.2,94.7c2.9-0.8,6.4,0.2,8,2.3"/>
		<path class="st3" d="M160.6,98.2c2.2,0.1,4,2,3.6,3.7"/>
		<line class="st4" x1="107" y1="137.6" x2="92.4" y2="176"/>
		<line class="st4" x1="128.9" y1="137.2" x2="137.7" y2="179"/>
		<path class="st1" d="M89.6,116.9c-0.2-2.5-0.3-4.9-0.5-7.4"/>
		<path class="st1" d="M92.4,100.3c-2.3,0.6-4.1,2.3-4.6,4.2"/>
		<path class="st2" d="M91.7,105.4c-1.3-0.5-3-0.1-4,0.7s-1.7,1.9-2.3,3c-1.4,2.6-2.8,5.2-4.2,7.8c-0.9,1.7-1.8,3.6-1.1,5.3
			c0.8,2.1,3.5,3.1,5.9,4"/>
		<path class="st0" d="M86.2,126.6c-0.7,1.1-0.1,2.6,1.2,3.2"/>
		<path class="st0" d="M86.9,125.3c-0.3-0.6-0.3-1.3,0.2-1.9c0.4-0.5,1.2-0.9,2-0.8"/>
		<path class="st1" d="M92.3,97.9c1.8-3.3,3.6-6.8,6.9-9.3c0.9-0.7,2-1.4,2.6-2.3c0.9-1.2,0.8-2.7,1.1-4.1c0.3-1.4,1-2.9,2.6-3.4"/>
		<g>
			<path class="st1" d="M86,57.6c3.8-4.5,6.4-9.7,6.8-15.2c0.3-4.7-1.3-9.8-5.6-13c-3.5-2.6-8.3-3.7-12.9-4.7"/>
			<path class="st1" d="M58.4,32.4c5.8,1.1,9.6,5.9,10.4,10.7c0.8,4.8-0.8,9.6-2.4,14.2"/>
			<path class="st1" d="M57.3,63.9C53,67,50,71.6,50.6,76.3c0.5,3.7,3.3,7,6.5,9.7c4.5,3.7,9.3,5.3,12.8,6.3
				c6.4,1.9,12.4,3.6,16.9,1.3c1.6-0.8,1.8-1.6,6.7-13.2c2.5-5.9,2.9-7.2,3-9.6c0.1-3.3-1.1-6.8-4-9.1
				C83.7,54.6,65.4,58.1,57.3,63.9z"/>
			<path class="st0" d="M71.2,66.4c4.3-1.6,9.1-2.2,13.7-1.7"/>
			<path class="st0" d="M53.8,67.4c1.9-0.2,3.9,0.1,5.7,0.8"/>
			<path class="st0" d="M52.2,72.7c-0.3,1.2,0.5,2.6,2,2.7c1.2,0.1,2.3-0.7,3-1.5s1.4-1.7,2.5-2.2c-1-0.7-2.7-1.7-4-1.9
				C53.8,69.5,52.5,71.3,52.2,72.7z"/>
			<path class="st0" d="M75.1,68.5c1.6-0.6,3.1-0.6,5.5-0.5c1.7,0.1,4.2,0.3,7.2,1c-1.4,0.2-2.5,1.1-3.3,2.1c-0.8,1-1.3,2.1-2.2,3
				c-0.2,0.2-2.8,2.8-6.3,2.3c-2.2-0.3-4.8-1.8-4.9-3.8C71,70.1,74.7,68.6,75.1,68.5z"/>
			<path class="st0" d="M57.1,82.9c2.4,0.9,4.7,1.9,7.1,2.8c0.7,0.3,1.5,0.6,2.3,0.6c0.8,0,1.7-0.2,2.5-0.4c1.8-0.5,3.7-1.1,4.9-2.4
				"/>
			<path class="st0" d="M75.4,88.3c1.2-1.5,3.7-2.3,5.9-1.8"/>
			<path class="st0" d="M58,83.1c-0.3-0.2-0.7-0.3-1-0.5c-0.1-2.6,1-5.2,3.1-7.1"/>
			<path class="st5" d="M78.5,74.6c-0.9,1.4-3.2,1.8-5.2,0.9c-2-0.9-2.8-2.7-1.9-4.1c0.9-1.4,3.2-1.8,5.2-0.9
				C78.5,71.3,79.4,73.2,78.5,74.6z"/>
			<path class="st5" d="M56.6,74.7c-0.5,0.8-2,1-3.3,0.5s-1.9-1.7-1.4-2.5c0.5-0.8,2-1,3.3-0.5C56.5,72.7,57.1,73.8,56.6,74.7z"/>
		</g>
		<path class="st1" d="M53.7,85.8c-3.5,1.1-6,4.2-6,7.2c0,3.1,2.5,6.1,6.1,7.2"/>
		<path class="st4" d="M66.3,93.7c-3.6,2.7-7.2,5.4-10.9,8.2c-0.6,0.4-1.2,0.9-1.2,1.6c0,0.8,1,1.4,1.8,1.8c3.3,1.6,6.5,3.1,9.8,4.7
			"/>
		<path class="st1" d="M57.5,106.8c-2-0.2-4,0.4-5.5,1.5c-1.5,1-2.7,2.4-3.6,3.8c-1.3,2.1-2.2,4.5-1.9,6.9c0.2,2.4,1.6,4.7,4,6.1
			c2.4,1.3,5.9,1.4,8.2-0.1"/>
		<path class="st1" d="M65.1,110.4c-0.8-0.5-1.9-0.5-2.8-0.1c-0.9,0.4-1.4,1.2-1.4,2c0.8-0.1,1.7,0.1,2.3,0.6c0.6,0.5,0.6,1.4,0,1.8
			c-0.7,0.4-1.8,0.3-2.3,0.9c-0.5,0.6,0.5,1.5,1.4,1.4c0.9,0,1.7-0.6,2.3-1.1c1.1-0.9,2.2-1.7,3.3-2.6c0.3-0.2,0.5-0.4,0.6-0.7
			c0.2-0.7-0.7-1.2-1.4-1.4c-0.7-0.3-1.6-0.6-1.7-1.3"/>
		<path class="st1" d="M70.6,104.9c0.6,2.7-0.6,5.5-2.3,7.9c-1.7,2.4-3.9,4.5-5.6,6.9c-2.2,3.2-3.5,6.8-3.8,10.4
			c-0.2,3.5,0.4,7.3-2.1,10.1c-1,1.1-2.5,2.1-2.5,3.5c0,1.3,1.4,2.4,2.9,2.7c1.5,0.3,3.1,0.1,4.7-0.2"/>
		<path class="st1" d="M59.3,138.1c3.1,3.2,7.7,5.4,12.4,6.6s9.8,1.7,14.8,2.1c1.9,0.1,3.8,0.3,5.6-0.2s3.3-1.9,3.2-3.4"/>
		<path class="st1" d="M104.4,142.3c-5.1,1.8-10.7,0.7-15.2-2c4-2.1,6.3-6.2,5.4-10.1c0.5-0.6,1.2-1.1,1.7-1.7"/>
		<path class="st0" d="M86.8,129.1c1,1.2,2.9,1.7,4.7,1.4c1.7-0.3,3.1-1.6,3.4-3"/>
		<path class="st0" d="M89,122.6c0.4-0.1,1.1-0.1,1.9,0c0.9,0.1,1.6,0.4,2,0.6"/>
		<path class="st0" d="M60.8,124.7c1.7-0.5,3.6-0.1,5.1,0.6c1.6,0.7,2.9,1.7,4.4,2.4c2.7,1.3,5.9,1.9,9,2.4c1.2,0.2,2.4,0.4,3.6,0.3
			s2.4-0.4,3.2-1.1"/>
		<path class="st0" d="M54.3,89.8c-0.9,1.7,0,3.9,2,4.8"/>
		<path class="st0" d="M55.7,111.6c-3.7,2.3-3.9,7.4-0.5,9.9"/>
		<path class="st0" d="M84.3,108.3c-4.6-0.2-9.1-1.5-12.9-3.5c-1.6-3.8-3.3-7.5-2.9-11.5"/>
		<path class="st0" d="M65.4,145.1c-4.7,11-8.1,22.3-10.3,33.8c0.7-0.5,1.4-1.1,2.1-1.6c2.1-0.4,4.2,1,4.9,2.6c0.6,1.7,0,3.5-1,5
			c-1.9,2.7-5.2,4.6-9,5.2c-3.7,0.6-7.7-0.2-10.7-2.2c1-2.2,3-4.1,5.5-5.2c3.1-1.4,4.1-4.5,7.6-5.1"/>
		<path class="st0" d="M88.3,147.1c-1.9,6-3.3,12-4.2,18.1c-0.4,2.7-1.6,6.6-0.9,9.2c0.9,3.4,2.1,1.8,4.9,4.5
			c1.4,1.4,2.8,4.3,1.7,5.9c-2.8,1.2-3,5.1-6.1,5.5c-0.8,0.1-1.7-0.1-2.4-0.4c-2.4-0.9-4.2-2.7-4.8-4.8s0.1-4.4,1.7-6
			c0.8-0.8,1.9-1.5,3-2.1c0.5-0.3,1.2-0.4,1.9-0.3"/>
		<path class="st5" d="M57.2,179.1c-0.5-0.9-2.7-0.9-4.9,0c-2.2,0.9-3.5,2.3-3,3.1c0.5,0.9,2.7,0.9,4.9,0
			C56.4,181.4,57.8,180,57.2,179.1z"/>
		<path class="st5" d="M86.2,179.8c0,0.3-0.1,0.5-1,1.8c-1.7,2.5-1.9,2.7-2.2,2.7c-0.2,0-0.5-0.1-2-2.4c-1.2-1.7-1.2-2-1.2-2.2
			c0-1.2,1.4-3,3.5-2.9C85.1,176.9,86.3,178.6,86.2,179.8z"/>
	</g>
	<path class="st3" d="M95.2,77c3.1,0.3,6,1.9,7.5,4.2"/>
</g>
</svg>
